G04 MADE WITH FRITZING*
G04 WWW.FRITZING.ORG*
G04 DOUBLE SIDED*
G04 HOLES PLATED*
G04 CONTOUR ON CENTER OF CONTOUR VECTOR*
%ASAXBY*%
%FSLAX23Y23*%
%MOIN*%
%OFA0B0*%
%SFA1.0B1.0*%
%ADD10C,0.094488*%
%ADD11C,0.075000*%
%ADD12C,0.078000*%
%ADD13C,0.070000*%
%ADD14C,0.074000*%
%ADD15R,0.075000X0.075000*%
%ADD16C,0.024000*%
%LNCOPPER1*%
G90*
G70*
G54D10*
X1500Y1602D03*
X2400Y1200D03*
X2488Y1397D03*
X2597Y1302D03*
X2699Y1200D03*
X2597Y1602D03*
X2788Y1404D03*
X3299Y900D03*
G54D11*
X2297Y299D03*
X1697Y299D03*
X2297Y399D03*
X1697Y399D03*
X2297Y499D03*
X1697Y499D03*
X2297Y599D03*
X1697Y599D03*
X2297Y699D03*
X1697Y699D03*
X2297Y799D03*
X1697Y799D03*
X2297Y899D03*
X1697Y899D03*
X2297Y999D03*
X1697Y999D03*
X2297Y1099D03*
X1697Y1099D03*
X2297Y1199D03*
X1697Y1199D03*
X2297Y1299D03*
X1697Y1299D03*
X2297Y1399D03*
X1697Y1399D03*
X2297Y1499D03*
X1697Y1499D03*
X2297Y1599D03*
X1697Y1599D03*
X2297Y1699D03*
X1697Y1699D03*
X2297Y1799D03*
X1697Y1799D03*
X2297Y1899D03*
X1697Y1899D03*
X2297Y1999D03*
X1697Y1999D03*
X2297Y2099D03*
X1697Y2099D03*
X2297Y2199D03*
X1697Y2199D03*
G54D10*
X898Y407D03*
X1498Y698D03*
G54D12*
X3097Y1499D03*
X3097Y1099D03*
X1012Y1099D03*
X3097Y1299D03*
X3097Y899D03*
X1012Y1199D03*
X3097Y1599D03*
X3097Y1399D03*
X3097Y1199D03*
X3097Y999D03*
X1012Y1299D03*
X1012Y1399D03*
G54D13*
X797Y1399D03*
X797Y1499D03*
X797Y1599D03*
X797Y1699D03*
X797Y1799D03*
X797Y1899D03*
X797Y1999D03*
G54D14*
X497Y499D03*
X507Y599D03*
X497Y699D03*
X507Y799D03*
X497Y899D03*
X507Y999D03*
G54D10*
X1097Y1599D03*
X897Y1199D03*
X897Y707D03*
X897Y599D03*
X1097Y499D03*
X1297Y899D03*
X1197Y999D03*
X1197Y1699D03*
X1297Y1899D03*
G54D15*
X2297Y299D03*
G54D16*
X2624Y1601D02*
X3067Y1599D01*
D02*
X97Y198D02*
X97Y2297D01*
D02*
X97Y2297D02*
X2495Y2297D01*
D02*
X2495Y2297D02*
X2495Y1499D01*
D02*
X2495Y1499D02*
X3067Y1499D01*
D02*
X1098Y900D02*
X1200Y702D01*
D02*
X1200Y702D02*
X1110Y523D01*
D02*
X2624Y1302D02*
X3067Y1299D01*
D02*
X2726Y1200D02*
X3067Y1199D01*
D02*
X2897Y1097D02*
X3067Y1099D01*
D02*
X2897Y798D02*
X2897Y1097D01*
D02*
X3067Y1400D02*
X2815Y1404D01*
D02*
X1098Y198D02*
X97Y198D01*
D02*
X1098Y472D02*
X1098Y198D01*
D02*
X1097Y1572D02*
X1098Y900D01*
D02*
X3272Y900D02*
X3128Y899D01*
D02*
X2400Y1173D02*
X2400Y702D01*
D02*
X2489Y1370D02*
X2495Y798D01*
D02*
X2999Y1002D02*
X3067Y1000D01*
D02*
X2400Y702D02*
X2999Y702D01*
D02*
X2495Y798D02*
X2897Y798D01*
D02*
X2999Y702D02*
X2999Y1002D01*
D02*
X1500Y1575D02*
X1498Y725D01*
D02*
X1197Y1026D02*
X1197Y1672D01*
D02*
X1297Y926D02*
X1297Y1872D01*
D02*
X898Y572D02*
X898Y434D01*
D02*
X897Y1172D02*
X897Y733D01*
G04 End of Copper1*
M02*