G04 MADE WITH FRITZING*
G04 WWW.FRITZING.ORG*
G04 DOUBLE SIDED*
G04 HOLES PLATED*
G04 CONTOUR ON CENTER OF CONTOUR VECTOR*
%ASAXBY*%
%FSLAX23Y23*%
%MOIN*%
%OFA0B0*%
%SFA1.0B1.0*%
%ADD10C,0.104488*%
%ADD11C,0.085000*%
%ADD12C,0.096614*%
%ADD13C,0.088000*%
%ADD14C,0.080000*%
%ADD15C,0.084000*%
%ADD16R,0.085000X0.085000*%
%LNMASK1*%
G90*
G70*
G54D10*
X1500Y1602D03*
X2400Y1200D03*
X2488Y1397D03*
X2597Y1302D03*
X2699Y1200D03*
X2597Y1602D03*
X2788Y1404D03*
X3299Y900D03*
G54D11*
X2297Y299D03*
X1697Y299D03*
X2297Y399D03*
X1697Y399D03*
X2297Y499D03*
X1697Y499D03*
X2297Y599D03*
X1697Y599D03*
X2297Y699D03*
X1697Y699D03*
X2297Y799D03*
X1697Y799D03*
X2297Y899D03*
X1697Y899D03*
X2297Y999D03*
X1697Y999D03*
X2297Y1099D03*
X1697Y1099D03*
X2297Y1199D03*
X1697Y1199D03*
X2297Y1299D03*
X1697Y1299D03*
X2297Y1399D03*
X1697Y1399D03*
X2297Y1499D03*
X1697Y1499D03*
X2297Y1599D03*
X1697Y1599D03*
X2297Y1699D03*
X1697Y1699D03*
X2297Y1799D03*
X1697Y1799D03*
X2297Y1899D03*
X1697Y1899D03*
X2297Y1999D03*
X1697Y1999D03*
X2297Y2099D03*
X1697Y2099D03*
X2297Y2199D03*
X1697Y2199D03*
G54D10*
X898Y407D03*
G54D12*
X97Y99D03*
X97Y2399D03*
X3197Y99D03*
X3197Y2399D03*
G54D10*
X1498Y698D03*
G54D13*
X3097Y1499D03*
X3097Y1099D03*
X1012Y1099D03*
X3097Y1299D03*
X3097Y899D03*
X1012Y1199D03*
X3097Y1599D03*
X3097Y1399D03*
X3097Y1199D03*
X3097Y999D03*
X1012Y1299D03*
X1012Y1399D03*
G54D14*
X797Y1399D03*
X797Y1499D03*
X797Y1599D03*
X797Y1699D03*
X797Y1799D03*
X797Y1899D03*
X797Y1999D03*
G54D15*
X497Y499D03*
X507Y599D03*
X497Y699D03*
X507Y799D03*
X497Y899D03*
X507Y999D03*
G54D10*
X1097Y1599D03*
X897Y1199D03*
X897Y707D03*
X897Y599D03*
X1097Y499D03*
X1297Y899D03*
X1197Y999D03*
X1197Y1699D03*
X1297Y1899D03*
G54D16*
X2297Y299D03*
G04 End of Mask1*
M02*