; NON-PLATED HOLES START AT T1
; THROUGH (PLATED) HOLES START AT T100
M48
INCH
T1C0.086614
T2C0.125984
T100C0.038000
T101C0.031496
T102C0.040000
T103C0.035000
T104C0.039370
%
T1
X031974Y023991
X000974Y023991
X031974Y000991
X000974Y000991
T2
X030773Y007100
X010313Y018129
X030773Y018139
X010313Y007100
T100
X030974Y013991
X030974Y012991
X030974Y008991
X030974Y010991
X010119Y010991
X010119Y011991
X030974Y011991
X010119Y013990
X010119Y012991
X030974Y014991
X030974Y015991
X030974Y009991
T101
X032990Y008997
X008974Y011991
X015001Y016015
X010974Y015991
X011974Y016991
X023996Y011995
X012974Y018991
X012974Y008991
X027880Y014039
X011974Y009991
X014977Y006978
X010974Y004991
X008980Y004072
X025972Y016015
X008974Y005991
X024882Y013971
X025972Y013017
X026994Y011995
X008974Y007065
T102
X004974Y004991
X005074Y005991
X005074Y007991
X004974Y006991
X004974Y008991
X005074Y009991
T103
X016974Y005991
X016974Y014991
X022974Y006991
X016974Y007991
X016974Y018991
X016974Y003991
X022974Y008991
X022974Y020991
X016974Y017991
X022974Y016991
X016974Y004991
X022974Y017991
X016974Y021991
X016974Y006991
X022974Y004991
X022974Y002991
X016974Y013991
X022974Y019991
X022974Y005991
X022974Y014991
X016974Y011991
X016974Y020991
X016974Y008991
X022974Y018991
X022974Y012991
X022974Y021991
X016974Y015991
X022974Y010991
X016974Y009991
X016974Y016991
X022974Y007991
X022974Y011991
X016974Y010991
X016974Y019991
X022974Y003991
X022974Y013991
X022974Y009991
X016974Y012991
X022974Y015991
X016974Y002991
T104
X007974Y019991
X007974Y016991
X007974Y017991
X007974Y018991
X007974Y014991
X007974Y013991
X007974Y015991
T00
M30
